<svg aria-roledescription="gitGraph" role="graphics-document document" viewBox="-117.1484375 -49 525.1484375 286.388427734375" height="286.388427734375" xmlns:xlink="http://www.w3.org/1999/xlink" xmlns="http://www.w3.org/2000/svg" width="525.1484375" id="my-svg" style="background-color: white;"><style>#my-svg{font-family:"trebuchet ms",verdana,arial,sans-serif;font-size:16px;fill:#333;}#my-svg .error-icon{fill:#552222;}#my-svg .error-text{fill:#552222;stroke:#552222;}#my-svg .edge-thickness-normal{stroke-width:2px;}#my-svg .edge-thickness-thick{stroke-width:3.5px;}#my-svg .edge-pattern-solid{stroke-dasharray:0;}#my-svg .edge-pattern-dashed{stroke-dasharray:3;}#my-svg .edge-pattern-dotted{stroke-dasharray:2;}#my-svg .marker{fill:#333333;stroke:#333333;}#my-svg .marker.cross{stroke:#333333;}#my-svg svg{font-family:"trebuchet ms",verdana,arial,sans-serif;font-size:16px;}#my-svg .commit-id,#my-svg .commit-msg,#my-svg .branch-label{fill:lightgrey;color:lightgrey;font-family:'trebuchet ms',verdana,arial,sans-serif;font-family:var(--mermaid-font-family);}#my-svg .branch-label0{fill:#ffffff;}#my-svg .commit0{stroke:hsl(240, 100%, 46.2745098039%);fill:hsl(240, 100%, 46.2745098039%);}#my-svg .commit-highlight0{stroke:hsl(60, 100%, 3.7254901961%);fill:hsl(60, 100%, 3.7254901961%);}#my-svg .label0{fill:hsl(240, 100%, 46.2745098039%);}#my-svg .arrow0{stroke:hsl(240, 100%, 46.2745098039%);}#my-svg .branch-label1{fill:black;}#my-svg .commit1{stroke:hsl(60, 100%, 43.5294117647%);fill:hsl(60, 100%, 43.5294117647%);}#my-svg .commit-highlight1{stroke:rgb(0, 0, 160.5);fill:rgb(0, 0, 160.5);}#my-svg .label1{fill:hsl(60, 100%, 43.5294117647%);}#my-svg .arrow1{stroke:hsl(60, 100%, 43.5294117647%);}#my-svg .branch-label2{fill:black;}#my-svg .commit2{stroke:hsl(80, 100%, 46.2745098039%);fill:hsl(80, 100%, 46.2745098039%);}#my-svg .commit-highlight2{stroke:rgb(48.8333333334, 0, 146.5000000001);fill:rgb(48.8333333334, 0, 146.5000000001);}#my-svg .label2{fill:hsl(80, 100%, 46.2745098039%);}#my-svg .arrow2{stroke:hsl(80, 100%, 46.2745098039%);}#my-svg .branch-label3{fill:#ffffff;}#my-svg .commit3{stroke:hsl(210, 100%, 46.2745098039%);fill:hsl(210, 100%, 46.2745098039%);}#my-svg .commit-highlight3{stroke:rgb(146.5000000001, 73.2500000001, 0);fill:rgb(146.5000000001, 73.2500000001, 0);}#my-svg .label3{fill:hsl(210, 100%, 46.2745098039%);}#my-svg .arrow3{stroke:hsl(210, 100%, 46.2745098039%);}#my-svg .branch-label4{fill:black;}#my-svg .commit4{stroke:hsl(180, 100%, 46.2745098039%);fill:hsl(180, 100%, 46.2745098039%);}#my-svg .commit-highlight4{stroke:rgb(146.5000000001, 0, 0);fill:rgb(146.5000000001, 0, 0);}#my-svg .label4{fill:hsl(180, 100%, 46.2745098039%);}#my-svg .arrow4{stroke:hsl(180, 100%, 46.2745098039%);}#my-svg .branch-label5{fill:black;}#my-svg .commit5{stroke:hsl(150, 100%, 46.2745098039%);fill:hsl(150, 100%, 46.2745098039%);}#my-svg .commit-highlight5{stroke:rgb(146.5000000001, 0, 73.2500000001);fill:rgb(146.5000000001, 0, 73.2500000001);}#my-svg .label5{fill:hsl(150, 100%, 46.2745098039%);}#my-svg .arrow5{stroke:hsl(150, 100%, 46.2745098039%);}#my-svg .branch-label6{fill:black;}#my-svg .commit6{stroke:hsl(300, 100%, 46.2745098039%);fill:hsl(300, 100%, 46.2745098039%);}#my-svg .commit-highlight6{stroke:rgb(0, 146.5000000001, 0);fill:rgb(0, 146.5000000001, 0);}#my-svg .label6{fill:hsl(300, 100%, 46.2745098039%);}#my-svg .arrow6{stroke:hsl(300, 100%, 46.2745098039%);}#my-svg .branch-label7{fill:black;}#my-svg .commit7{stroke:hsl(0, 100%, 46.2745098039%);fill:hsl(0, 100%, 46.2745098039%);}#my-svg .commit-highlight7{stroke:rgb(0, 146.5000000001, 146.5000000001);fill:rgb(0, 146.5000000001, 146.5000000001);}#my-svg .label7{fill:hsl(0, 100%, 46.2745098039%);}#my-svg .arrow7{stroke:hsl(0, 100%, 46.2745098039%);}#my-svg .branch{stroke-width:1;stroke:#333333;stroke-dasharray:2;}#my-svg .commit-label{font-size:10px;fill:#000021;}#my-svg .commit-label-bkg{font-size:10px;fill:#ffffde;opacity:0.5;}#my-svg .tag-label{font-size:10px;fill:#131300;}#my-svg .tag-label-bkg{fill:#ECECFF;stroke:hsl(240, 60%, 86.2745098039%);}#my-svg .tag-hole{fill:#333;}#my-svg .commit-merge{stroke:#ECECFF;fill:#ECECFF;}#my-svg .commit-reverse{stroke:#ECECFF;fill:#ECECFF;stroke-width:3;}#my-svg .commit-highlight-inner{stroke:#ECECFF;fill:#ECECFF;}#my-svg .arrow{stroke-width:8;stroke-linecap:round;fill:none;}#my-svg .gitTitleText{text-anchor:middle;font-size:18px;fill:#333;}#my-svg :root{--mermaid-font-family:"trebuchet ms",verdana,arial,sans-serif;}</style><g/><g class="commit-bullets"/><g class="commit-labels"/><g><line class="branch branch0" y2="0" x2="400" y1="0" x1="0"/><rect transform="translate(-19, -8.5)" height="21" width="74.1484375" y="-0.5" x="-90.1484375" ry="4" rx="4" class="branchLabelBkg label0"/><g class="branchLabel"><g transform="translate(-100.1484375, -9.5)" class="label branch-label0"><text><tspan class="row" x="0" dy="1em" xml:space="preserve">develop</tspan></text></g></g><line class="branch branch1" y2="90" x2="400" y1="90" x1="0"/><rect transform="translate(-19, 81.5)" height="21" width="69.59375" y="-0.5" x="-85.59375" ry="4" rx="4" class="branchLabelBkg label1"/><g class="branchLabel"><g transform="translate(-95.59375, 80.5)" class="label branch-label1"><text><tspan class="row" x="0" dy="1em" xml:space="preserve">staging</tspan></text></g></g><line class="branch branch2" y2="180" x2="400" y1="180" x1="0"/><rect transform="translate(-19, 171.5)" height="21" width="52.6875" y="-0.5" x="-68.6875" ry="4" rx="4" class="branchLabelBkg label2"/><g class="branchLabel"><g transform="translate(-78.6875, 170.5)" class="label branch-label2"><text><tspan class="row" x="0" dy="1em" xml:space="preserve">main</tspan></text></g></g></g><g class="commit-arrows"><path class="arrow arrow2" d="M 210 90 L 210 160 A 20 20, 0, 0, 0, 230 180 L 260 180"/><path class="arrow arrow0" d="M 260 180 L 260 20 A 20 20, 0, 0, 1, 280 0 L 10 0"/><path class="arrow arrow0" d="M 10 0 L 60 0"/><path class="arrow arrow1" d="M 60 0 L 60 70 A 20 20, 0, 0, 0, 80 90 L 110 90"/><path class="arrow arrow1" d="M 110 90 L 160 90"/><path class="arrow arrow1" d="M 160 90 L 210 90"/><path class="arrow arrow2" d="M 260 180 L 310 180"/><path class="arrow arrow2" d="M 310 180 L 360 180"/></g><g class="commit-bullets"><circle class="commit TWO commit0" r="10" cy="0" cx="10"/><circle class="commit THREE commit0" r="10" cy="0" cx="60"/><circle class="commit ONE* commit1" r="10" cy="90" cx="110"/><circle class="commit TWO* commit1" r="10" cy="90" cx="160"/><circle class="commit THREE* commit1" r="10" cy="90" cx="210"/><circle class="commit ONE commit2" r="10" cy="180" cx="260"/><circle class="commit TWO' commit2" r="10" cy="180" cx="310"/><circle class="commit THREE' commit2" r="10" cy="180" cx="360"/></g><g class="commit-labels"><g transform="translate(-20.2478125, 18.0059375) rotate(-45, 0, 0)"><rect height="15" width="27.546875" y="13.5" x="-3.7734375" class="commit-label-bkg"/><text class="commit-label" y="25" x="-1.7734375">TWO</text></g><g transform="translate(-24.30423828125, 21.635371093750003) rotate(-45, 50, 0)"><rect height="15" width="38.2216796875" y="13.5" x="40.88916015625" class="commit-label-bkg"/><text class="commit-label" y="25" x="42.88916015625">THREE</text></g><g transform="translate(-21.054570312499997, 18.727773437499998) rotate(-45, 100, 90)"><rect height="15" width="29.669921875" y="103.5" x="95.1650390625" class="commit-label-bkg"/><text class="commit-label" y="115" x="97.1650390625">ONE*</text></g><g transform="translate(-21.68357421875, 19.29056640625) rotate(-45, 150, 90)"><rect height="15" width="31.3251953125" y="103.5" x="144.33740234375" class="commit-label-bkg"/><text class="commit-label" y="115" x="146.33740234375">TWO*</text></g><g transform="translate(-25.69880859375, 22.88314453125) rotate(-45, 200, 90)"><rect height="15" width="41.8916015625" y="103.5" x="189.05419921875" class="commit-label-bkg"/><text class="commit-label" y="115" x="191.05419921875">THREE*</text></g><g transform="translate(-19.66, 17.48) rotate(-45, 250, 180)"><rect height="15" width="26" y="193.5" x="247" class="commit-label-bkg"/><text class="commit-label" y="205" x="249">ONE</text></g><g transform="translate(-20.92357421875, 18.61056640625) rotate(-45, 300, 180)"><rect height="15" width="29.3251953125" y="193.5" x="295.33740234375" class="commit-label-bkg"/><text class="commit-label" y="205" x="297.33740234375">TWO'</text></g><g transform="translate(-24.93880859375, 22.203144531249997) rotate(-45, 350, 180)"><rect height="15" width="39.8916015625" y="193.5" x="340.05419921875" class="commit-label-bkg"/><text class="commit-label" y="205" x="342.05419921875">THREE'</text></g></g><text class="gitTitleText" y="-25" x="145.42578125">Github flow</text></svg>